<svg id="eiKLG3yrlct1" xmlns="http://www.w3.org/2000/svg" xmlns:xlink="http://www.w3.org/1999/xlink" viewBox="0 0 20 20" shape-rendering="geometricPrecision" text-rendering="geometricPrecision"><g transform="matrix(.997286 0 0 1 0.020219 0)"><ellipse rx="10" ry="10" transform="translate(9.979726 10)" fill="#F0BF5F"/><g><path d="M9.5,9.9C8.2,9.7,7.258167,8.6,7.258167,7.3c0-.95.041833-1.559335.874175-2.3.465586-.432356,3.136574-.432356,3.798192,0-.000001,0,.727637.669599.727634,2.3.041081-.043392-.006938-.435191-.006938,0c0,1.300001-.85123,2.4-2.15123,2.6c1.7-.3,3.1-1.7,3.1-3.5c0-2-1.6-3.6-3.6-3.6s-3.6,1.6-3.6,3.6c0,1.8,1.3,3.3,3.1,3.5Z" transform="translate(.006939 0.075562)" fill="#333"/><path d="M15.399999,13.6c-.083666-1.307723-.899995-2.7-2.699997-2.7L7.3,10.9c-1.5,0-2.7,1.2-2.7,2.7v2.7c0,.5.4.9.9.9h9c.5,0,.9-.4.9-.9v-2.7c0-1.5-1.199993-2.7-2.699993-2.7h-5.498042" transform="translate(-.041833-.171065)" fill="#333"/></g></g></svg>
